# xmcd
#
# Track frame offsets: 
#        150
#        5883
#        20279
#        34580
#        52643
#        67529
#        82794
#        101298
#        118271
#        134992
#        152741
#        169482
#        185742
#        193102
#        210172
#        227303
#        240252
#        251954
#        265153
#        278140
#
# Disc length: 3896 seconds
#
# Revision: 0
# Processed by: cddbd v1.5.2PL0 Copyright (c) Steve Scherf et al.
# Submitted via: ExactAudioCopy v0.99pb1
#
DISCID=040f3614
DTITLE=Die Mukketier-Bande - Musik auf dem Bauernhof 
DYEAR=2005
DGENRE=
TTITLE0=Der Hof
TTITLE1=Der Hahn
TTITLE2=Das Schaf Karly
TTITLE3=Der Esel
TTITLE4=Die Ziege
TTITLE5=Atze, die Katze
TTITLE6=Der Trommelhund
TTITLE7=Gerd, das Pferd
TTITLE8=Die Kuh Hella
TTITLE9=Heiner, das Schwein
TTITLE10=Die Hühner
TTITLE11=Der Bauer
TTITLE12=Die Idee
TTITLE13=Die Party
TTITLE14=Ein Hörtest
TTITLE15=Der Hahn (Karaoke Version)
TTITLE16=Atze, die Katze (Karaoke Version)
TTITLE17=Die Ziege (Karaoke Version)
TTITLE18=Die Kuh Hella (Karaoke Version)
TTITLE19=Gerd, das Pferd (Karaoke Version)
EXTD=
EXTT0=
EXTT1=
EXTT2=
EXTT3=
EXTT4=
EXTT5=
EXTT6=
EXTT7=
EXTT8=
EXTT9=
EXTT10=
EXTT11=
EXTT12=
EXTT13=
EXTT14=
EXTT15=
EXTT16=
EXTT17=
EXTT18=
EXTT19=
PLAYORDER=
